<svg id="visual" viewBox="0 0 960 540" width="960" height="540" xmlns="http://www.w3.org/2000/svg" xmlns:xlink="http://www.w3.org/1999/xlink" version="1.1"><path d="M0 131L87 185L175 174L262 104L349 141L436 168L524 114L611 239L698 249L785 131L873 109L960 185L960 0L873 0L785 0L698 0L611 0L524 0L436 0L349 0L262 0L175 0L87 0L0 0Z" fill="#00cc8e"></path><path d="M0 249L87 287L175 212L262 195L349 179L436 287L524 185L611 276L698 298L785 185L873 168L960 228L960 183L873 107L785 129L698 247L611 237L524 112L436 166L349 139L262 102L175 172L87 183L0 129Z" fill="#00b98a"></path><path d="M0 411L87 395L175 325L262 406L349 336L436 374L524 395L611 417L698 390L785 379L873 379L960 374L960 226L873 166L785 183L698 296L611 274L524 183L436 285L349 177L262 193L175 210L87 285L0 247Z" fill="#00a784"></path><path d="M0 509L87 449L175 471L262 471L349 449L436 503L524 465L611 476L698 498L785 487L873 498L960 449L960 372L873 377L785 377L698 388L611 415L524 393L436 372L349 334L262 404L175 323L87 393L0 409Z" fill="#00957c"></path><path d="M0 541L87 541L175 541L262 541L349 541L436 541L524 541L611 541L698 541L785 541L873 541L960 541L960 447L873 496L785 485L698 496L611 474L524 463L436 501L349 447L262 469L175 469L87 447L0 507Z" fill="#038373"></path></svg>